<?xml version="1.0" encoding="UTF-8" standalone="no"?>
<svg
   xmlns:dc="http://purl.org/dc/elements/1.1/"
   xmlns:cc="http://creativecommons.org/ns#"
   xmlns:rdf="http://www.w3.org/1999/02/22-rdf-syntax-ns#"
   xmlns:svg="http://www.w3.org/2000/svg"
   xmlns="http://www.w3.org/2000/svg"
   xmlns:xlink="http://www.w3.org/1999/xlink"
   id="svg2"
   viewBox="0 0 20743 11430"
   style="shape-rendering:geometricPrecision; text-rendering:geometricPrecision; image-rendering:optimizeQuality; fill-rule:evenodd; clip-rule:evenodd"
   version="1.1"
   height="114.3mm"
   width="207.433mm"
   xml:space="preserve"><metadata
     id="metadata13"><rdf:RDF><cc:Work
         rdf:about=""><dc:format>image/svg+xml</dc:format><dc:type
           rdf:resource="http://purl.org/dc/dcmitype/StillImage" /><dc:title></dc:title></cc:Work></rdf:RDF></metadata><defs
     id="defs4"><style
       id="style6"
       type="text/css"><![CDATA[
    .fil0 {fill:black}
   ]]></style></defs><g
     id="Layer_x0020_1"><metadata
       id="CorelCorpID_0Corel-Layer" /><path
       d="M3041 41c17,7 41,11 63,11 22,-1 41,-6 51,-6 10,1 11,5 11,13 1,8 1,18 10,29 9,11 26,22 48,30 22,9 48,15 65,21 18,5 27,10 31,15 4,5 4,9 -3,12 -6,2 -18,2 -38,5 -19,4 -46,10 -69,20 -23,9 -41,22 -50,35 -10,14 -11,29 -9,40 1,10 5,17 5,20 -1,4 -5,5 -17,2 -12,-3 -31,-9 -51,-12 -20,-2 -40,-1 -54,3 -15,4 -24,9 -30,16 -7,7 -10,16 -13,25 -3,8 -4,17 -10,17 -6,1 -17,-8 -30,-15 -13,-7 -28,-12 -45,-13 -17,0 -35,3 -51,10 -15,7 -29,18 -37,25 -8,7 -11,10 -15,7 -3,-3 -8,-12 -17,-26 -10,-14 -25,-32 -46,-46 -22,-15 -51,-26 -82,-32 -31,-7 -64,-10 -112,-14 -48,-4 -111,-8 -159,-13 -49,-4 -84,-9 -103,-11 -19,-3 -22,-3 -22,-1 0,1 3,4 19,12 16,9 44,24 69,38 24,14 46,27 70,36 25,9 51,14 73,15 21,0 38,-3 49,-8 12,-4 18,-9 21,-10 4,0 4,3 6,11 2,8 5,19 12,33 6,13 17,28 34,40 17,12 41,21 61,27 20,6 36,9 43,13 8,3 6,8 3,16 -4,8 -9,20 -7,38 3,18 12,42 23,62 11,20 24,36 34,48 11,12 19,19 21,24 3,4 1,6 -12,1 -12,-5 -34,-16 -55,-25 -21,-9 -40,-16 -56,-17 -16,-1 -28,3 -32,10 -3,8 2,19 9,29 7,11 15,20 19,26 3,5 1,8 -4,7 -6,-1 -15,-5 -28,-11 -14,-5 -33,-11 -51,-13 -18,-2 -35,-2 -48,2 -12,4 -20,10 -26,11 -6,2 -9,-2 -14,-12 -4,-9 -10,-26 -22,-41 -11,-15 -30,-29 -45,-38 -15,-9 -26,-13 -40,-16 -15,-3 -31,-4 -38,-6 -7,-3 -4,-7 0,-13 5,-7 11,-16 12,-32 0,-15 -5,-35 -16,-48 -12,-12 -30,-16 -38,-20 -8,-4 -7,-8 -2,-13 6,-5 15,-12 19,-27 5,-15 6,-38 2,-56 -4,-19 -13,-33 -30,-47 -14,-11 -33,-22 -52,-31 -1,3 -3,5 -5,7 -10,13 -25,27 -39,38 -14,10 -27,18 -43,23 -15,6 -32,10 -48,12 -16,2 -30,2 -43,0 -12,-2 -23,-6 -29,-8 -6,-2 -8,-1 -6,3 1,3 5,9 12,16 7,7 16,15 28,20 12,5 25,7 37,7 12,1 22,0 27,0 5,1 5,4 4,10 -1,6 -4,15 -2,26 2,12 9,26 17,37 8,10 18,17 28,21 10,4 20,6 24,9 4,3 2,7 -3,11 -5,4 -13,9 -18,19 -5,10 -6,26 -2,41 3,16 12,33 18,43 7,10 10,15 10,17 0,3 -4,4 -11,0 -7,-4 -17,-13 -29,-19 -12,-5 -26,-8 -37,-8 -11,0 -18,3 -22,3 -5,0 -6,-2 -11,-8 -4,-7 -12,-17 -20,-24 -9,-7 -19,-11 -29,-13 -10,-2 -19,-2 -24,-3 -5,-1 -5,-4 -4,-11 0,-7 0,-19 -2,-31 -3,-12 -8,-24 -17,-33 -9,-9 -20,-14 -28,-18 -7,-4 -11,-7 -12,-9 -1,-2 1,-4 6,-7 5,-2 13,-6 21,-15 7,-9 14,-24 16,-38 1,-14 -2,-28 -6,-39 -5,-11 -11,-19 -16,-23 -6,-3 -10,-2 -19,4 -8,6 -20,17 -33,30 -12,14 -25,29 -35,45 -10,16 -18,32 -23,45 -5,12 -7,21 -9,28 -1,5 0,11 4,15 3,5 8,8 14,8 19,2 34,18 34,38 0,20 -17,37 -37,37 -21,0 -38,-17 -38,-37 0,-4 1,-8 2,-12 2,-4 1,-8 0,-13 -3,-7 -5,-15 -4,-27 1,-15 7,-38 16,-60 9,-22 22,-42 39,-62 17,-20 38,-39 58,-55 20,-17 39,-30 61,-41 23,-11 49,-20 76,-26 28,-6 56,-8 91,-8 20,0 43,1 66,3 6,-14 9,-27 10,-37 0,-5 0,-9 0,-13 0,-8 -4,-14 -11,-17 -13,-6 -22,-19 -22,-34 0,-21 17,-37 37,-37 21,0 37,16 37,37 0,14 -7,26 -18,32 -6,4 -10,10 -10,17 0,5 0,11 0,16 -2,11 -4,22 -9,35l-1 1c13,1 25,2 37,3 37,4 67,7 94,9 26,2 48,3 71,4 33,1 65,3 99,-2 33,-5 68,-16 95,-30 27,-13 46,-30 62,-47 15,-18 25,-38 32,-54 6,-16 9,-30 13,-37 3,-6 8,-7 14,-3 7,3 16,10 33,15 18,4 44,6 73,0 29,-6 60,-20 79,-30 19,-11 26,-18 31,-19 4,0 6,6 12,15 6,8 15,19 32,26l1 0zm-2656 830c-9,-7 -25,-19 -44,-28 -19,-9 -41,-14 -63,-16 -22,-1 -43,1 -61,5 -18,4 -34,9 -42,10 -7,0 -7,-6 -4,-14 4,-7 9,-17 17,-26 8,-9 18,-18 22,-24 4,-6 3,-8 -4,-12 -7,-3 -19,-7 -36,-9 -18,-2 -40,-3 -59,-1 -20,3 -38,9 -51,15 -14,6 -23,12 -28,13 -5,1 -6,-4 0,-13 6,-10 20,-25 37,-40 17,-15 38,-30 53,-43 15,-13 25,-22 29,-32 4,-11 3,-22 -1,-31 -4,-9 -11,-16 -16,-22 -5,-7 -8,-13 -7,-15 1,-3 7,-3 16,-1 8,1 21,4 34,3 13,0 28,-3 45,-11 16,-7 36,-18 48,-29 12,-11 17,-21 20,-30 3,-9 4,-19 6,-23 2,-4 6,-4 12,2 6,7 15,19 30,29 15,9 36,16 55,19 20,3 38,3 50,2 11,-1 17,-3 21,-3 4,0 7,2 12,8 4,6 12,15 25,23 14,9 35,16 51,19 16,3 26,2 34,2 7,0 11,0 15,2 3,1 5,5 13,14 7,9 19,24 32,35 13,12 28,22 43,29 15,8 30,14 49,17 19,4 42,6 58,7 17,1 26,2 30,2 4,-1 1,-4 -8,-9 -9,-5 -25,-12 -41,-20 -16,-8 -32,-18 -46,-26 -14,-8 -25,-15 -42,-21 -16,-6 -37,-12 -61,-22 -24,-9 -52,-22 -78,-34 -25,-11 -48,-21 -73,-32 -25,-11 -52,-22 -81,-37 -29,-15 -60,-33 -87,-50 -27,-17 -50,-31 -74,-49 -24,-18 -48,-39 -68,-59 -20,-21 -36,-39 -51,-60 -14,-20 -28,-42 -37,-61 -9,-18 -14,-34 -15,-46 -2,-11 0,-20 2,-27 0,-2 1,-4 1,-6 3,-6 1,-13 -3,-18 -5,-6 -8,-14 -8,-23 0,-21 17,-37 37,-37 21,0 38,16 38,37 0,18 -13,33 -31,37 -7,1 -12,6 -15,13 0,2 -1,4 -1,6 -1,8 -1,17 3,31 5,14 13,32 26,53 13,20 31,43 49,63 18,19 36,35 53,51 17,15 34,30 57,46 23,15 51,31 78,47 28,16 54,32 79,45 24,13 46,23 72,34 26,12 56,26 80,37 23,11 40,20 57,27 18,7 35,14 44,16 8,2 7,0 4,-4 -3,-5 -9,-11 -18,-22 -10,-10 -23,-24 -37,-40 -14,-15 -28,-30 -41,-45 -12,-15 -24,-29 -36,-43 -13,-13 -26,-26 -43,-40 -17,-14 -37,-29 -53,-38 -15,-9 -25,-12 -34,-13 -10,-1 -20,-1 -28,-1 -2,0 -4,1 -6,1 -9,1 -15,6 -17,14 -4,16 -19,28 -36,28 -21,0 -37,-17 -37,-37 0,-21 16,-38 37,-38 10,0 20,5 26,12 5,4 11,6 17,5 2,0 4,0 7,0 8,-1 17,-2 27,-1 9,1 19,3 25,4 7,1 11,2 13,1 3,-1 4,-2 4,-7 0,-4 -1,-12 -2,-20 0,-8 1,-17 2,-25 1,-2 1,-4 2,-7 2,-6 0,-12 -4,-18 -6,-6 -9,-15 -9,-24 0,-21 16,-37 37,-37 21,0 37,16 37,37 0,18 -12,33 -29,36 -8,2 -13,7 -15,15 -1,3 -2,7 -2,12 -1,11 -1,25 1,35 2,11 6,17 14,25 9,8 22,18 36,29 14,11 28,23 44,39 15,17 31,37 51,61 20,23 44,49 65,71 21,22 38,38 51,50 14,11 23,17 28,19 5,2 6,0 4,-5 -2,-6 -7,-16 -11,-32 -5,-15 -9,-36 -10,-61 -2,-25 0,-54 1,-82 1,-28 3,-55 1,-78 -2,-23 -7,-41 -15,-57 -8,-15 -19,-28 -30,-37 -11,-9 -22,-13 -28,-17 -5,-4 -6,-7 -1,-9 6,-1 19,-1 31,-4 11,-3 22,-10 28,-19 7,-11 9,-24 8,-35 0,-12 -2,-23 -7,-31 -4,-8 -10,-14 -14,-17 -5,-4 -8,-5 -10,-7 -2,-2 -2,-5 2,-6 4,-1 12,-1 21,-3 9,-1 19,-4 27,-12 8,-9 15,-22 16,-34 1,-12 -2,-22 -4,-29 -2,-6 -1,-10 3,-10 4,1 12,4 22,6 9,1 20,0 29,-9 10,-9 18,-25 27,-36 9,-11 19,-16 25,-18 6,-3 8,-2 8,0 0,2 -2,5 -6,12 -4,7 -8,17 -10,29 -1,12 2,26 8,35 7,9 17,13 27,14 11,0 21,-4 26,-5 6,-1 7,0 6,4 0,3 -3,8 -7,15 -4,7 -10,16 -14,26 -4,10 -7,20 -7,30 0,9 3,19 8,26 5,6 11,10 17,13 5,2 11,2 13,4 3,1 3,4 0,6 -4,3 -11,6 -19,11 -8,5 -16,12 -23,22 -7,10 -11,23 -13,34 -2,10 -2,19 0,27 3,8 8,16 10,21 2,4 0,6 -5,7 -6,0 -15,1 -27,5 -11,4 -24,12 -37,25 -13,12 -25,29 -35,45 -10,17 -18,34 -23,49 -6,14 -9,27 -11,42 -2,14 -2,32 -2,45 1,13 3,22 4,26 1,5 3,6 5,3 2,-2 4,-9 11,-18 7,-9 17,-21 29,-31 12,-11 25,-20 39,-28 14,-9 30,-18 40,-28 10,-9 15,-18 16,-28 2,-10 1,-21 1,-27 0,-6 1,-7 5,-6 5,1 12,4 21,4 9,0 20,-3 29,-9 9,-6 16,-14 20,-22 3,-9 4,-16 2,-25 -2,-9 -7,-20 -8,-26 -2,-6 0,-7 3,-5 4,2 9,8 17,13 9,5 20,10 33,10 12,0 27,-3 41,-10 14,-6 26,-16 34,-27 8,-11 10,-22 12,-34 1,-12 1,-25 3,-32 1,-7 4,-8 6,-5 2,3 5,10 6,22 1,13 1,32 -3,48 -3,16 -10,30 -15,41 -5,10 -8,18 -8,26 -1,8 2,16 6,22 4,6 10,8 12,11 2,2 1,3 -2,4 -3,1 -7,1 -14,3 -6,2 -14,5 -21,10 -7,4 -12,9 -17,16 -5,7 -9,16 -9,25 0,9 4,19 6,25 2,6 1,7 -2,6 -3,-1 -8,-3 -15,-6 -7,-2 -17,-5 -26,-5 -10,1 -20,3 -29,8 -8,5 -15,13 -20,21 -4,7 -8,16 -10,21 -3,4 -5,6 -8,3 -4,-3 -8,-10 -16,-16 -7,-7 -17,-13 -26,-16 -10,-3 -19,-3 -30,-1 -11,1 -26,5 -40,13 -14,8 -28,20 -39,33 -10,12 -17,25 -20,36 -4,10 -5,18 -4,26 1,8 4,15 9,24 4,9 12,18 23,28 11,10 27,19 47,28 21,8 47,16 71,25 24,8 46,16 64,21 19,5 34,7 46,8 12,1 20,1 25,0 4,-1 4,-4 1,-7 -2,-3 -6,-7 -10,-11 -2,-2 -3,-4 -5,-6 -3,-5 -8,-7 -13,-8 -19,-2 -33,-18 -33,-37 0,-21 17,-37 38,-37 20,0 37,16 37,37 0,9 -3,17 -9,24 -7,8 -6,20 2,27 5,4 11,8 22,11 12,3 28,4 48,4 20,-1 43,-4 60,-9 17,-5 28,-12 33,-17 6,-5 5,-8 1,-11 -5,-4 -14,-9 -26,-17 -11,-9 -25,-22 -36,-39 -11,-18 -20,-41 -26,-66 -5,-25 -7,-53 -5,-78 2,-25 8,-47 17,-66 9,-19 21,-35 33,-54 11,-19 22,-41 26,-62 3,-21 -1,-42 -7,-57 -5,-16 -13,-25 -16,-31 -4,-6 -3,-9 1,-9 4,0 12,2 25,1 13,-1 33,-5 56,-16 22,-12 46,-30 61,-48 15,-17 20,-34 22,-50 2,-17 0,-34 3,-38 2,-4 9,4 19,12 10,8 23,17 42,21 19,5 45,5 68,1 22,-4 42,-13 56,-26 14,-13 22,-30 27,-39 5,-8 8,-7 10,-1 2,7 3,18 10,33 7,15 21,34 40,48 18,14 42,22 67,26 24,4 50,3 61,6 12,3 9,9 -1,14 -10,5 -27,9 -45,20 -19,12 -39,31 -53,51 -15,19 -24,38 -29,55 -4,18 -4,35 -1,48 3,13 10,23 11,29 1,6 -3,8 -12,10 -8,2 -21,4 -35,9 -15,6 -32,16 -45,29 -13,13 -21,30 -24,47 -3,17 0,35 -1,45 0,10 -3,11 -9,8 -5,-4 -13,-12 -26,-18 -12,-7 -28,-11 -47,-11 -19,0 -41,5 -58,15 -17,11 -29,27 -36,36 -8,10 -11,13 -14,10 -3,-2 -7,-8 -12,-18 -5,-9 -12,-20 -23,-29 -11,-9 -26,-15 -43,-17 -17,-2 -36,0 -51,8 -16,9 -27,24 -33,41 -6,18 -6,37 -2,55 3,18 10,35 22,51 11,15 27,28 42,37 15,9 28,12 40,13 11,0 21,-4 35,-11 15,-8 35,-20 55,-29 19,-9 39,-14 57,-20 17,-6 33,-12 51,-15 19,-3 40,-3 65,-4 25,-2 54,-7 77,-7 24,0 43,3 61,8 19,4 38,9 52,16 14,7 23,15 29,23 6,8 8,16 9,22 0,2 0,4 0,6 0,6 2,10 5,14 6,7 10,16 10,25 0,21 -17,38 -37,38 -21,0 -37,-17 -37,-38 0,-14 7,-26 19,-32 6,-4 10,-9 10,-16 0,-7 -3,-14 -9,-18 -2,-1 -3,-2 -5,-3 -11,-5 -26,-10 -41,-13 -16,-3 -32,-5 -43,-6 -11,-1 -18,0 -20,1 -2,2 0,5 3,10 4,5 9,13 13,23 3,9 4,20 4,26 -1,6 -3,8 -6,4 -3,-4 -7,-14 -15,-24 -7,-9 -17,-20 -25,-26 -7,-6 -12,-8 -17,-9 -5,-1 -11,-2 -18,0 -6,2 -13,5 -20,11 -7,6 -15,15 -23,26 -8,11 -16,25 -22,36 -6,11 -10,20 -13,25 -4,5 -6,7 -8,6 -3,0 -5,-2 -5,-7 0,-5 3,-13 8,-24 5,-11 11,-24 18,-35 7,-11 14,-18 19,-24 5,-6 7,-11 4,-13 -3,-2 -12,-2 -24,1 -13,2 -29,7 -46,11 -17,5 -34,10 -51,18 -17,7 -34,18 -50,27 -17,9 -33,16 -49,24 -17,8 -35,17 -50,25 -16,8 -30,15 -54,20 -25,5 -60,7 -83,7 -23,1 -34,0 -42,2 -8,2 -15,7 -22,13 -8,6 -18,12 -28,17 -9,5 -19,8 -29,10 -4,1 -8,1 -12,2 -9,1 -15,7 -17,15 -3,17 -18,29 -36,29 -21,0 -38,-16 -38,-37 0,-20 17,-37 38,-37 10,0 19,4 25,10 5,4 10,6 16,5 9,-1 18,-2 27,-4 12,-2 23,-6 30,-12 7,-5 9,-11 2,-15 -6,-4 -20,-5 -38,-9 -19,-5 -41,-12 -64,-19 -24,-7 -49,-14 -73,-19 -24,-5 -47,-8 -72,-9 -25,-2 -51,-2 -72,1 -22,2 -38,7 -49,14 -12,7 -19,18 -26,26 -7,7 -14,11 -21,15 -8,3 -17,5 -26,11 -8,6 -15,16 -20,24 -4,9 -5,18 -6,24 -1,6 -1,10 -4,12 -2,3 -5,5 -11,2 -5,-2 -12,-9 -24,-14 -11,-5 -28,-8 -44,-7 -16,1 -32,7 -43,14 -11,8 -18,18 -23,24 -5,7 -9,11 -12,13 -3,2 -7,0 -16,-6l1 -1zm-348 -645c21,0 38,17 38,38 0,20 -17,37 -38,37 -20,0 -37,-17 -37,-37 0,-21 17,-38 37,-38zm338 23c0,5 -1,10 -3,15 -2,6 -2,13 3,19l2 3c4,5 9,12 14,16 5,5 10,7 16,9 7,2 14,3 19,7 6,3 10,7 11,11 1,3 0,5 -1,7 -1,2 -3,4 -5,4 -2,1 -3,0 -7,-2 -3,-2 -7,-6 -12,-8 -5,-2 -11,-3 -17,-5 -5,-3 -12,-7 -17,-12 -6,-6 -11,-13 -15,-18l-1 -1c-4,-6 -11,-9 -18,-8 -2,0 -4,0 -6,0 -20,0 -37,-16 -37,-37 0,-21 17,-37 37,-37 21,0 37,16 37,37l0 0zm1145 563c-21,0 -38,-16 -38,-37 0,-21 17,-37 38,-37 20,0 37,16 37,37 0,21 -17,37 -37,37zm-90 1c-20,0 -37,-17 -37,-38 0,-20 17,-37 37,-37 21,0 38,17 38,37 0,21 -17,38 -38,38zm-840 -141c7,4 5,9 -3,14 -7,5 -20,11 -33,21 -12,9 -25,21 -32,30 -6,8 -7,12 -5,14 1,2 5,1 14,-5 8,-6 20,-18 35,-28 14,-10 30,-18 41,-23 12,-5 19,-6 28,-6 9,1 20,4 26,5 7,0 10,-1 10,-4 1,-2 -2,-6 -7,-10 -5,-3 -12,-7 -23,-12 -12,-5 -26,-12 -43,-17 -17,-6 -36,-10 -49,-14 -12,-4 -17,-6 -22,-12 -5,-6 -11,-15 -16,-22 -6,-6 -12,-9 -16,-10 -3,0 -5,2 -3,8 2,5 8,13 11,18 2,4 3,6 1,7 -1,1 -5,1 -17,0 -13,-1 -34,-3 -49,-4 -16,0 -26,0 -34,-3 -8,-2 -13,-9 -21,-16 -8,-8 -20,-16 -29,-21 -9,-4 -16,-5 -18,-4 -3,0 -2,2 2,7 4,4 10,10 18,16 7,7 15,13 17,18 3,4 -1,5 -13,7 -12,3 -31,5 -48,9 -16,4 -28,8 -37,10 -10,2 -16,0 -24,-3 -8,-2 -18,-6 -26,-8 -8,-2 -15,-3 -18,-2 -4,1 -3,4 1,7 4,3 13,6 19,10 6,3 9,6 8,9 -2,4 -7,7 -18,12 -10,4 -24,10 -38,17 -14,7 -28,15 -36,21 -8,6 -10,10 -9,11 1,2 5,1 16,-3 11,-5 28,-13 51,-22 22,-9 50,-19 75,-27 25,-7 48,-12 59,-14 11,-1 11,1 8,6 -4,5 -11,12 -19,20 -7,8 -15,18 -20,28 -5,9 -8,19 -7,23 0,4 3,2 8,-3 6,-5 13,-12 24,-22 10,-11 24,-25 35,-36 11,-11 20,-18 28,-21 9,-4 18,-5 34,-4 16,0 39,2 51,3 12,1 13,3 12,5 -1,3 -4,6 -11,12 -6,5 -17,12 -29,25 -12,12 -26,31 -34,43 -9,12 -12,17 -12,20 0,3 4,3 13,-4 8,-7 20,-21 35,-35 15,-15 34,-29 47,-38 13,-10 22,-15 29,-16 8,-2 15,-1 27,2 11,2 28,7 36,11l0 0zm179 -295c-2,12 -2,19 -1,23 0,4 2,5 5,2 2,-2 5,-7 8,-16 2,-8 5,-20 8,-31 2,-11 4,-21 9,-27 5,-5 13,-7 20,-10 7,-3 14,-7 19,-11 4,-3 8,-7 8,-9 1,-2 -2,-4 -8,-2 -6,2 -16,7 -23,10 -7,3 -11,4 -13,3 -2,-1 -2,-4 -1,-10 2,-6 5,-16 7,-25 2,-9 4,-19 8,-24 4,-5 11,-6 17,-9 7,-2 13,-5 19,-10 6,-5 11,-12 13,-16 2,-4 0,-5 -3,-4 -4,1 -9,5 -15,8 -5,3 -10,6 -15,8 -4,2 -9,3 -11,2 -3,0 -3,-2 -2,-8 2,-6 5,-16 7,-23 2,-7 3,-10 8,-14 5,-3 13,-6 21,-11 7,-5 14,-11 18,-17 4,-6 6,-12 6,-15 0,-3 -1,-3 -4,0 -3,3 -8,7 -13,11 -5,4 -11,7 -15,9 -4,3 -8,4 -9,2 -2,-2 0,-6 1,-13 2,-6 3,-14 4,-22 1,-9 3,-18 3,-25 1,-6 0,-10 -2,-10 -2,0 -5,3 -8,11 -3,8 -5,21 -8,30 -2,10 -3,16 -5,19 -1,4 -2,4 -4,2 -2,-1 -4,-5 -7,-9 -2,-5 -5,-10 -7,-12 -2,-2 -3,-1 -4,3 0,4 0,11 2,17 2,7 7,13 10,18 2,6 1,10 0,16 -1,6 -3,13 -5,20 -2,7 -4,13 -6,16 -1,2 -3,1 -5,-1 -2,-2 -5,-6 -8,-10 -3,-4 -6,-9 -9,-11 -2,-2 -3,-1 -3,2 0,3 1,9 4,14 2,5 5,10 7,14 3,5 5,9 5,14 1,4 0,10 -1,18 -1,8 -3,17 -5,24 -1,6 -2,9 -4,10 -2,1 -4,-1 -7,-5 -2,-3 -5,-8 -7,-14 -3,-7 -5,-15 -6,-18 -1,-4 -2,-3 -3,-1 -1,3 -2,6 -1,12 0,6 1,15 5,22 3,7 8,13 10,20 3,6 2,13 1,24 -1,12 -4,27 -5,39l0 0zm146 113c6,-1 13,-3 18,-4 5,-2 8,-3 13,-2 4,1 10,2 14,3 5,0 8,-1 10,-2 1,-1 0,-2 -3,-3 -2,-1 -5,-1 -8,-3 -2,-1 -3,-2 -2,-4 2,-2 6,-4 12,-7 6,-3 13,-6 17,-9 5,-2 6,-2 8,-2 3,1 5,2 10,4 4,1 10,1 14,1 5,0 7,0 7,-1 0,-1 -2,-3 -5,-4 -3,-1 -6,-2 -8,-4 -2,-1 -4,-3 -3,-6 0,-2 2,-5 7,-9 4,-4 10,-8 16,-14 7,-6 15,-14 20,-18 5,-3 9,-4 12,-4 3,0 6,0 7,0 1,-1 1,-2 -1,-3 -2,-1 -5,-2 -6,-3 -1,-1 -1,-3 2,-6 3,-3 7,-7 11,-13 3,-5 5,-11 6,-15 0,-4 -2,-4 -5,-1 -3,4 -7,11 -17,21 -9,9 -23,21 -33,28 -9,8 -14,12 -17,13 -3,2 -4,1 -3,-3 0,-3 1,-10 1,-15 0,-4 -1,-8 -2,-9 -1,-2 -2,-2 -2,0 -1,2 -2,5 -3,10 -1,4 -3,11 -6,17 -3,6 -8,12 -14,17 -6,5 -14,9 -21,12 -7,4 -13,8 -17,10 -4,1 -6,1 -7,-1 -1,-2 0,-6 0,-10 -1,-4 -1,-8 -2,-9 -1,-2 -2,-1 -3,2 -1,3 -2,8 -3,13 -2,4 -4,8 -6,11 -3,4 -6,6 -10,8 -4,2 -9,4 -11,6 -2,3 -1,6 1,8 2,1 6,1 12,0l0 0zm299 -66c-11,12 -19,23 -27,35 -7,11 -13,22 -17,29 -3,7 -4,11 -2,13 1,2 4,2 7,-1 4,-2 8,-7 13,-13 5,-6 11,-14 20,-26 9,-12 21,-28 33,-41 12,-13 25,-22 38,-27 14,-5 28,-5 46,-4 18,1 39,3 59,8 20,5 38,12 49,16 11,3 14,3 14,1 1,-2 -2,-6 -11,-12 -10,-5 -27,-13 -45,-17 -18,-5 -37,-7 -53,-8 -15,-1 -27,-1 -34,-1 -6,0 -8,-1 -5,-5 3,-4 10,-11 24,-22 13,-11 33,-25 46,-34 13,-8 18,-10 32,-10 13,1 34,4 54,8 21,4 42,10 54,13 13,4 18,5 20,3 2,-1 0,-4 -10,-10 -10,-6 -28,-14 -46,-19 -18,-5 -35,-7 -44,-9 -10,-2 -12,-4 -8,-7 3,-4 13,-9 24,-16 11,-6 25,-14 35,-19 9,-5 16,-8 28,-6 12,2 29,9 44,14 15,5 28,8 34,9 6,0 5,-2 2,-5 -3,-3 -10,-8 -20,-12 -10,-5 -24,-10 -31,-14 -8,-4 -9,-5 -5,-8 4,-3 14,-7 29,-11 15,-5 34,-11 51,-15 17,-5 31,-8 36,-10 6,-2 4,-4 -1,-5 -5,0 -12,0 -24,1 -12,2 -28,5 -41,8 -13,2 -22,5 -27,4 -4,-1 -4,-6 -1,-13 3,-7 8,-17 13,-23 5,-6 9,-9 10,-11 1,-2 -2,-3 -9,2 -7,4 -19,15 -28,26 -8,10 -12,20 -19,26 -6,7 -14,11 -26,16 -11,5 -27,11 -43,20 -17,8 -34,18 -45,25 -12,7 -17,10 -19,9 -3,-1 -3,-4 0,-14 3,-10 9,-26 15,-40 6,-13 13,-24 16,-31 3,-7 3,-10 2,-11 -2,-1 -5,0 -11,8 -6,7 -15,22 -22,35 -7,14 -11,27 -13,37 -3,10 -3,19 -6,25 -3,6 -8,10 -17,17 -10,7 -24,17 -37,27 -13,11 -26,21 -33,26 -7,4 -9,3 -9,-3 -1,-7 0,-18 2,-28 1,-10 4,-18 6,-25 3,-6 4,-10 4,-12 -1,-3 -2,-3 -5,1 -4,4 -8,12 -12,21 -4,10 -7,21 -8,32 -2,11 -2,22 -4,30 -2,8 -6,13 -13,21 -8,9 -19,20 -29,32zm-865 929c-5,14 -19,23 -34,23 -21,0 -37,-16 -37,-37 0,-21 16,-37 37,-37 13,0 24,6 31,17 5,7 13,10 22,8 3,-1 6,-3 10,-4 4,-2 8,-4 11,-5 4,-1 7,-1 9,0 2,1 4,4 3,6 0,2 -2,4 -7,6 -5,3 -12,6 -20,9 -4,1 -7,2 -11,3 -6,1 -11,5 -14,11zm160 559c-9,1 -23,0 -36,-2 -13,-2 -25,-5 -32,-6 -6,-1 -7,-1 -5,3 3,3 8,9 17,14 9,4 21,7 30,9 10,1 15,2 17,4 2,2 1,6 -4,13 -5,8 -15,19 -24,28 -8,9 -17,17 -26,21 -8,3 -17,3 -27,3 -10,-1 -20,-2 -25,-1 -5,0 -5,1 -3,4 3,2 10,5 17,7 7,2 14,2 18,4 4,1 3,4 -5,11 -7,6 -22,16 -36,27 -15,12 -29,25 -36,32 -7,8 -6,10 -3,10 3,-1 8,-3 16,-8 8,-5 19,-12 27,-19 9,-6 16,-12 20,-14 4,-2 5,-1 5,2 1,4 1,9 2,15 1,5 4,11 6,13 1,3 3,3 4,0 1,-2 1,-7 1,-12 0,-6 1,-13 2,-18 1,-6 2,-10 6,-16 5,-5 12,-12 20,-20 9,-8 20,-18 28,-27 9,-9 17,-18 21,-23 5,-4 6,-5 6,-2 1,3 0,11 0,18 0,8 -1,15 1,22 2,7 7,13 10,16 3,3 5,3 5,1 1,-2 0,-6 -1,-12 -1,-6 -2,-15 -3,-23 0,-8 0,-16 1,-23 1,-7 3,-14 7,-22 4,-8 11,-18 16,-26 6,-8 10,-15 14,-18 3,-3 6,-2 7,2 1,4 2,11 4,17 2,7 6,14 10,18 5,4 10,4 12,4 3,0 2,-2 -1,-6 -2,-3 -5,-8 -8,-16 -2,-8 -3,-18 -3,-27 0,-9 1,-16 4,-25 3,-9 9,-21 14,-30 5,-8 9,-15 11,-19 2,-5 1,-8 0,-9 -2,-2 -5,-2 -7,0 -3,2 -6,6 -11,12 -4,6 -9,14 -14,19 -5,4 -10,6 -18,7 -8,1 -19,2 -28,2 -10,0 -18,-1 -22,0 -4,0 -3,2 0,5 3,2 8,4 15,5 8,2 17,3 24,4 6,0 9,1 10,3 1,3 -1,7 -6,15 -5,8 -14,19 -21,26 -7,6 -12,8 -22,9l-1 -1zm26 165c-11,-3 -26,-3 -40,1 -14,4 -28,13 -39,25 -10,12 -18,27 -23,38 -4,11 -5,18 -6,21 -2,4 -5,4 -8,1 -2,-3 -5,-10 -9,-16 -4,-7 -9,-12 -20,-16 -10,-3 -27,-5 -41,-4 -14,1 -26,6 -38,11 -13,5 -26,11 -33,13 -8,1 -10,-1 -7,-5 2,-4 8,-9 16,-19 8,-10 18,-24 23,-41 4,-16 4,-34 0,-46 -4,-12 -11,-17 -15,-21 -5,-5 -6,-7 -3,-9 2,-2 8,-3 19,-7 10,-5 25,-13 40,-23 15,-10 30,-21 39,-34 9,-14 11,-30 10,-42 -1,-12 -6,-20 -10,-26 -4,-6 -9,-10 -10,-13 -1,-3 1,-4 13,-7 13,-3 36,-8 55,-16 19,-8 35,-19 45,-32 10,-13 14,-28 17,-37 3,-8 5,-11 8,-10 4,2 9,8 16,15 8,6 17,13 29,16 12,3 26,2 38,-1 12,-3 21,-8 26,-13 5,-5 6,-10 4,-15 -2,-5 -7,-11 -12,-19 -6,-7 -12,-17 -20,-36 -8,-19 -18,-48 -23,-74 -5,-25 -5,-46 -4,-69 1,-23 3,-49 7,-70 5,-22 10,-40 13,-55 3,-15 3,-27 5,-41 2,-13 6,-28 8,-37 1,-9 0,-11 -7,-2 -8,10 -23,31 -39,54 -17,23 -36,46 -52,65 -17,18 -31,32 -42,48 -11,16 -19,35 -22,53 -3,18 1,35 8,48 6,13 16,21 23,27 6,7 10,11 9,13 -1,1 -6,1 -17,4 -10,4 -26,12 -39,24 -12,11 -22,28 -28,45 -7,18 -10,37 -10,51 -1,13 1,21 0,25 -1,4 -4,5 -10,2 -6,-4 -13,-11 -21,-14 -9,-2 -19,-1 -32,10 -14,11 -32,31 -44,51 -12,20 -20,39 -25,62 -6,23 -10,48 -13,78 -3,30 -5,64 -6,90 -1,26 -2,43 -4,59 -2,16 -6,31 -11,50 -6,18 -14,41 -23,60 -9,19 -18,33 -26,42 -8,8 -15,10 -22,12 -4,1 -9,1 -13,1 -4,1 -7,2 -10,4 -6,5 -14,8 -23,8 -20,0 -37,-17 -37,-38 0,-20 17,-37 37,-37 13,0 24,6 31,16 4,5 10,8 17,8 7,-1 13,-5 16,-11 2,-5 5,-11 9,-18 8,-19 18,-46 25,-74 6,-27 9,-55 10,-84 2,-29 3,-60 6,-91 4,-31 10,-62 13,-80 2,-19 1,-24 -10,-30 -11,-6 -31,-13 -52,-13 -21,0 -43,7 -59,14 -15,8 -26,17 -32,21 -7,5 -10,4 -8,-1 2,-6 9,-16 19,-27 10,-12 24,-26 31,-44 7,-18 8,-41 5,-56 -3,-15 -10,-22 -17,-26 -7,-5 -13,-8 -14,-12 -1,-3 4,-8 14,-17 10,-10 25,-24 36,-40 11,-15 18,-32 19,-46 1,-14 -3,-25 -4,-32 -2,-7 -2,-11 6,-14 9,-4 25,-6 42,-12 17,-5 36,-13 50,-23 14,-11 23,-25 28,-37 4,-12 4,-23 6,-28 1,-6 4,-6 15,-1 11,6 31,18 52,22 21,4 43,0 64,-9 21,-9 40,-23 58,-40 18,-16 36,-36 51,-55 15,-18 28,-36 40,-53 12,-18 23,-36 34,-55 10,-19 20,-40 29,-57 9,-18 16,-33 21,-44 5,-10 7,-16 7,-20 0,-3 -2,-4 -4,-4 -2,1 -5,4 -10,9 -5,5 -13,12 -22,22 -10,9 -22,20 -37,32 -15,12 -34,24 -52,34 -18,10 -36,17 -50,23 -13,6 -22,10 -32,16 -11,6 -22,14 -30,20 -5,4 -8,7 -10,10 -6,7 -6,18 0,25 6,7 10,16 10,25 0,21 -17,38 -38,38 -20,0 -37,-17 -37,-38 0,-18 13,-33 30,-36 6,-2 11,-5 14,-10 2,-4 4,-8 7,-11 5,-7 13,-15 21,-21 8,-6 17,-11 22,-15 5,-4 5,-6 4,-7 -1,-2 -4,-2 -8,-2 -5,-1 -11,-1 -17,-3 -6,-1 -11,-4 -17,-8 -2,-2 -5,-4 -8,-6 -5,-5 -11,-6 -17,-5 -2,1 -5,1 -8,1 -20,0 -37,-17 -37,-37 0,-21 17,-38 37,-38 21,0 38,17 38,38 0,4 -1,8 -2,11 -2,7 -1,14 4,19 1,1 2,2 4,3 4,5 11,8 22,10 10,2 25,3 43,-2 18,-4 38,-12 57,-23 19,-10 37,-23 57,-40 20,-16 42,-36 60,-55 17,-19 32,-37 42,-52 11,-15 17,-26 20,-32 3,-7 1,-10 -4,-10 -5,-1 -13,0 -26,3 -13,4 -29,10 -46,20 -17,10 -36,24 -48,35 -13,11 -19,19 -24,21 -4,2 -6,-2 -8,-8 -3,-6 -5,-14 -13,-21 -8,-7 -22,-13 -36,-16 -15,-2 -31,-1 -46,1 -15,2 -29,5 -39,7 -9,2 -13,2 -14,-2 -1,-5 2,-14 1,-22 -1,-8 -6,-14 -14,-20 -7,-5 -18,-9 -31,-10 -11,-1 -24,1 -33,3 -9,2 -13,4 -15,0 -2,-5 -1,-15 -4,-23 -2,-9 -8,-15 -18,-24 -10,-8 -24,-18 -38,-27 -13,-10 -24,-18 -22,-21 3,-3 20,1 38,2 17,2 35,3 48,-2 14,-5 24,-15 27,-23 4,-9 2,-17 1,-22 -1,-6 0,-8 2,-8 3,-1 8,1 18,5 10,5 26,12 41,14 15,2 29,0 40,-5 10,-5 17,-13 21,-19 5,-6 7,-11 17,-7 10,4 27,15 45,19 17,5 34,2 45,-4 12,-5 16,-12 20,-16 4,-4 7,-4 12,2 4,6 10,19 19,28 9,10 22,16 33,18 12,2 23,1 29,2 7,1 8,4 7,9 -1,5 -4,11 -7,19 -2,8 -3,18 0,28 3,9 10,18 18,25 7,7 16,13 23,13 8,0 14,-6 24,-14 10,-9 24,-22 37,-34 14,-11 27,-22 36,-31 5,-5 9,-9 13,-14 5,-6 6,-15 1,-22 -3,-6 -5,-12 -5,-19 0,-21 17,-37 37,-37 21,0 38,16 38,37 0,19 -14,34 -32,37 -5,1 -10,4 -13,8 -2,3 -3,5 -5,8 -5,6 -10,12 -12,21 -3,10 -4,23 0,39 3,16 11,33 21,47 10,13 23,22 39,28 15,6 34,9 44,12 11,3 14,6 11,13 -3,7 -12,17 -18,28 -6,12 -10,24 -12,37 -2,12 -1,25 2,38 3,12 9,26 19,36 9,11 22,19 31,24 9,6 14,10 11,15 -3,4 -13,9 -25,18 -11,8 -23,20 -34,39 -10,19 -19,46 -24,67 -5,21 -5,37 -7,46 -2,9 -5,11 -8,7 -3,-5 -6,-16 -11,-27 -5,-10 -11,-21 -18,-31 -8,-10 -17,-19 -30,-27 -14,-7 -32,-12 -47,-11 -16,1 -28,8 -36,12 -8,3 -13,4 -12,-6 0,-10 7,-29 10,-48 3,-18 3,-36 1,-51 -3,-16 -8,-29 -15,-39 -8,-10 -17,-17 -22,-22 -5,-6 -5,-9 -1,-14 5,-4 14,-9 22,-16 7,-8 13,-18 16,-29 3,-11 3,-23 2,-32 -1,-10 -3,-18 -4,-23 -1,-6 -1,-9 4,-11 5,-2 14,-3 23,-5 9,-2 18,-5 26,-11 7,-5 12,-13 15,-20 4,-7 6,-14 7,-25 1,-10 2,-23 1,-30 0,-7 -2,-8 -6,-6 -5,3 -13,9 -25,20 -13,11 -30,26 -46,45 -16,20 -32,44 -47,73 -16,28 -31,63 -44,95 -14,33 -25,64 -33,90 -8,25 -14,44 -16,61 -2,17 -1,32 -3,47 -3,15 -9,30 -14,51 -5,20 -9,46 -10,75 -1,28 1,59 6,84 5,24 13,43 21,59 8,17 17,32 23,38 7,7 10,6 14,1 4,-4 8,-12 10,-22 2,-10 3,-23 2,-33 -1,-10 -3,-16 -3,-20 0,-4 1,-6 6,-7 4,0 12,2 19,1 7,-1 13,-5 19,-13 7,-8 13,-20 17,-31 4,-10 4,-19 6,-24 1,-6 3,-8 6,-7 4,2 8,7 15,11 7,4 16,7 27,2 11,-4 24,-16 32,-28 9,-13 13,-27 16,-37 3,-11 5,-18 7,-22 2,-4 4,-5 6,-2 3,2 5,8 11,15 5,6 12,14 22,18 10,5 23,6 37,3 13,-3 28,-10 40,-22 11,-11 20,-26 26,-39 5,-12 8,-22 11,-27 3,-5 5,-5 6,1 1,5 1,16 -1,28 -1,12 -4,26 -8,41 -4,16 -8,34 -12,49 -4,15 -6,27 -7,40 0,12 1,25 3,35 3,10 7,17 9,22 3,5 4,9 2,10 -3,2 -9,1 -20,1 -11,1 -26,3 -41,9 -16,6 -30,17 -40,27 -10,11 -15,21 -18,29 -4,9 -5,14 -10,15 -5,0 -13,-5 -23,-10 -9,-4 -21,-8 -33,-8 -12,-1 -25,1 -33,6 -9,6 -13,15 -15,21 -3,7 -4,11 -6,12 -1,2 -3,0 -9,-4 -6,-5 -16,-13 -27,-17 -12,-4 -24,-5 -33,-4 -8,1 -13,2 -15,5 -3,3 -3,6 0,10 4,4 10,9 18,14 8,5 19,10 32,14 14,4 30,7 46,8 16,1 31,0 42,-5 12,-4 20,-11 27,-16 6,-5 10,-7 12,-2 3,5 5,17 9,26 3,10 10,17 19,23 9,6 20,11 32,11 12,0 25,-4 32,-6 8,-2 12,-2 14,2 1,4 1,13 2,25 1,11 3,24 9,36 5,12 13,24 24,34 11,9 24,16 32,21 8,5 11,9 9,12 -1,2 -6,3 -11,7 -6,5 -12,13 -14,24 -2,11 1,25 6,41 4,17 10,36 13,56 4,20 4,41 3,55 0,14 -2,20 -4,23 -3,3 -5,2 -7,-6 -1,-7 -2,-22 -7,-35 -5,-14 -14,-27 -28,-38 -14,-12 -33,-21 -46,-22 -13,0 -20,8 -24,16 -4,8 -5,15 -7,18 -2,3 -4,3 -8,-1 -3,-4 -7,-13 -14,-22 -7,-10 -16,-21 -27,-27 -10,-7 -22,-9 -33,-10 -11,-1 -23,0 -29,-1 -7,0 -9,-1 -9,-8 1,-8 3,-21 3,-34 -1,-13 -6,-26 -13,-36 -7,-11 -17,-18 -26,-21 -9,-3 -17,-2 -25,-1 -7,2 -14,5 -16,-1 -1,-6 2,-21 3,-35 1,-15 0,-29 -4,-45 -4,-16 -11,-33 -17,-46 -7,-13 -14,-22 -19,-27 -5,-5 -10,-6 -12,-5 -2,2 -1,6 3,15 3,9 11,23 16,39 4,15 7,33 7,50 1,16 -1,32 -1,47 0,15 1,29 6,41 5,12 14,23 22,36 9,13 17,29 24,43 7,13 13,24 20,35 7,12 15,23 25,31 10,8 21,14 30,19 10,5 18,9 25,17 7,7 14,17 21,26 7,8 13,16 21,21 3,3 7,6 11,8 6,3 12,3 17,0 5,-2 10,-3 16,-3 20,0 37,17 37,37 0,21 -17,38 -37,38 -21,0 -38,-17 -38,-38 0,-1 0,-1 1,-2 0,-9 -4,-16 -12,-19 -3,-2 -7,-4 -10,-6 -7,-5 -12,-11 -16,-17 -4,-5 -7,-11 -12,-17 -4,-5 -9,-11 -12,-14 -4,-2 -6,-2 -6,2 -1,3 1,10 2,18 2,7 3,16 3,24 0,5 -1,9 -1,14 -1,6 1,11 5,15 5,7 9,15 9,25 0,21 -17,37 -38,37 -20,0 -37,-16 -37,-37 0,-18 13,-33 30,-37 9,-1 15,-9 15,-18 0,-2 0,-5 0,-8 -1,-10 -4,-23 -9,-32 -4,-10 -10,-16 -20,-26 -11,-10 -26,-24 -37,-37 -10,-14 -17,-26 -22,-38 -5,-13 -9,-24 -15,-35 -7,-11 -17,-20 -24,-34 -7,-14 -11,-31 -13,-52 -1,-21 1,-44 1,-63 0,-19 -2,-34 -6,-49 -4,-15 -11,-29 -15,-36 -4,-7 -6,-7 -10,-1 -3,6 -7,18 -9,31 -1,13 -1,26 2,41 3,15 9,31 14,42 5,11 9,17 10,21 2,4 0,6 -6,9 -6,3 -16,7 -26,15 -11,8 -22,22 -28,36 -7,15 -9,32 -8,45 1,13 5,22 7,29 1,6 0,9 -3,9 -2,0 -6,-3 -12,-6 -7,-4 -16,-8 -28,-11l-1 1zm-143 -484c9,-10 16,-19 20,-27 5,-7 6,-12 5,-14 0,-3 -3,-3 -7,-2 -3,2 -7,5 -13,11 -6,6 -13,14 -20,19 -7,6 -14,8 -23,9 -8,1 -18,1 -27,-1 -9,-2 -16,-6 -21,-8 -4,-1 -6,0 -6,3 1,3 4,9 10,12 6,4 14,6 22,8 7,1 14,2 14,6 -1,4 -9,12 -17,20 -9,8 -19,16 -30,21 -11,5 -23,6 -34,6 -11,1 -21,0 -31,-1 -9,-2 -17,-4 -20,-3 -4,1 -2,4 1,8 4,3 9,6 18,9 9,2 21,4 30,4 9,1 15,0 18,1 3,2 2,5 -2,11 -3,6 -9,15 -16,24 -6,9 -13,19 -18,26 -5,7 -8,10 -15,13 -7,2 -17,3 -27,2 -9,0 -16,-1 -24,-2 -7,-2 -14,-4 -18,-3 -3,0 -4,4 2,7 5,4 16,9 26,12 10,2 18,3 23,5 5,1 6,3 5,10 -2,6 -7,16 -14,27 -7,11 -16,22 -25,31 -9,8 -18,14 -22,17 -3,3 -1,4 5,3 5,-1 12,-4 20,-10 8,-6 17,-14 25,-24 8,-9 15,-20 19,-24 4,-4 5,-2 5,2 1,5 2,12 3,17 1,6 3,10 7,13 3,3 7,6 9,7 2,0 3,-3 1,-6 -1,-4 -4,-9 -6,-15 -2,-7 -3,-14 -3,-22 1,-8 2,-18 8,-31 6,-13 17,-30 28,-45 11,-15 22,-28 29,-37 7,-8 10,-12 12,-12 3,-1 4,1 4,9 0,7 -1,20 0,33 2,12 6,25 10,33 3,9 7,15 10,16 2,2 4,0 3,-5 0,-5 -3,-13 -4,-22 -2,-9 -3,-20 -4,-29 0,-10 1,-20 2,-30 1,-10 3,-22 7,-31 4,-9 11,-16 19,-24 8,-8 19,-18 27,-27l0 0zm267 -552c9,3 19,7 26,8 7,2 11,1 12,-1 1,-2 -1,-5 -7,-9 -5,-4 -14,-9 -23,-13 -9,-5 -18,-9 -26,-16 -7,-7 -14,-17 -20,-25 -5,-7 -10,-11 -12,-12 -3,-1 -4,2 -2,6 1,5 5,11 10,18 4,6 9,13 6,15 -3,2 -15,-1 -25,-2 -10,-2 -17,-1 -24,-3 -6,-3 -11,-8 -18,-15 -7,-6 -17,-15 -25,-20 -8,-5 -14,-8 -17,-8 -3,1 -3,4 -1,8 3,5 9,11 15,17 7,6 14,11 17,15 2,4 0,6 -7,7 -8,1 -22,1 -34,0 -12,-2 -23,-5 -33,-9 -10,-5 -19,-11 -27,-16 -9,-6 -16,-10 -20,-11 -4,-2 -5,1 -2,6 3,4 10,12 16,17 6,6 12,10 13,12 2,3 -1,4 -10,5 -8,1 -22,1 -34,0 -12,-1 -23,-3 -27,-3 -5,1 -3,3 4,6 8,3 21,6 33,8 13,2 24,3 34,4 11,1 20,0 22,3 3,3 -2,9 -6,15 -4,5 -6,9 -8,13 -2,4 -2,7 -1,9 2,1 5,1 11,-4 6,-6 15,-16 25,-23 9,-7 19,-10 31,-12 13,-1 28,-1 41,-1 13,0 25,0 31,1 5,1 4,3 0,7 -4,5 -12,12 -16,18 -4,7 -6,12 -6,16 1,4 3,6 7,3 3,-3 8,-10 15,-16 6,-7 13,-13 19,-17 6,-4 12,-6 19,-6 6,0 15,2 24,5l0 0zm133 154c3,0 8,-2 13,-6 6,-3 12,-9 16,-11 4,-1 4,1 5,9 0,9 1,25 1,39 0,13 1,24 1,32 0,8 -1,13 -4,20 -2,8 -7,18 -12,27 -5,9 -11,17 -14,22 -3,5 -2,6 1,6 3,-1 8,-3 13,-8 5,-4 9,-11 12,-16 4,-6 6,-11 8,-12 2,-1 3,1 5,7 2,6 4,16 9,26 4,11 11,22 18,32 7,10 13,20 19,26 5,6 9,9 11,8 1,0 -1,-4 -5,-11 -4,-7 -10,-17 -16,-28 -6,-12 -11,-25 -14,-35 -4,-10 -6,-16 -7,-20 -1,-4 -1,-6 2,-5 2,1 7,4 13,8 6,4 14,8 20,9 6,2 10,1 11,0 1,0 0,-2 -5,-5 -6,-3 -15,-7 -24,-14 -8,-7 -16,-15 -20,-23 -5,-8 -7,-15 -8,-25 -2,-10 -2,-22 -3,-33 -1,-12 -2,-24 -1,-35 1,-10 3,-19 6,-22 3,-2 8,2 14,6 5,4 12,8 19,10 7,3 15,4 21,3 6,0 10,-3 11,-5 1,-1 0,-2 -4,-3 -5,0 -11,-1 -19,-4 -8,-3 -16,-8 -23,-14 -7,-5 -11,-11 -13,-17 -1,-6 -1,-13 1,-22 1,-9 2,-21 2,-28 1,-8 1,-12 0,-12 -2,1 -5,6 -9,15 -3,8 -6,19 -8,29 -2,9 -2,16 -6,26 -4,9 -12,21 -19,29 -8,9 -14,15 -17,19 -3,4 -3,6 0,6l-1 0zm-107 551c-5,3 -6,5 -6,6 1,1 3,2 9,1 6,-2 16,-5 27,-10 11,-5 23,-10 35,-16 11,-5 23,-10 33,-12 9,-1 17,0 24,2 6,3 11,6 14,7 3,2 5,1 6,-1 0,-2 -1,-6 -4,-10 -3,-3 -8,-5 -11,-7 -4,-3 -5,-5 -4,-6 1,-2 5,-4 12,-8 7,-5 19,-13 28,-18 9,-6 16,-9 24,-10 7,-2 15,-1 22,1 6,1 11,4 15,5 4,0 6,0 5,-3 0,-3 -2,-7 -6,-10 -4,-2 -10,-4 -14,-6 -3,-2 -5,-5 -2,-8 3,-4 10,-7 18,-15 8,-7 17,-17 24,-26 7,-9 12,-17 13,-21 2,-4 -1,-5 -5,-1 -5,4 -12,13 -21,22 -9,9 -20,18 -27,23 -6,4 -9,4 -11,1 -2,-4 -4,-11 -5,-15 -2,-3 -4,-2 -6,3 -2,5 -4,15 -7,23 -4,8 -9,15 -19,22 -10,7 -25,16 -38,22 -12,7 -22,12 -28,15 -6,2 -8,2 -7,-3 1,-5 4,-16 5,-22 1,-6 0,-8 -2,-8 -1,1 -3,3 -7,10 -4,7 -10,19 -16,27 -6,9 -11,15 -19,20 -9,5 -19,9 -28,14 -9,4 -17,9 -21,12l0 0zm22 99c6,6 15,14 21,20 7,6 11,11 15,18 4,6 7,16 9,25 1,9 1,18 2,23 1,5 3,6 4,4 2,-2 3,-5 3,-11 1,-5 1,-13 2,-17 0,-5 1,-6 5,-5 4,1 11,5 18,11 8,6 16,14 20,22 3,7 2,13 2,20 0,6 0,14 1,21 0,6 2,12 4,15 1,3 3,3 4,-1 0,-3 0,-10 0,-18 1,-7 1,-13 2,-18 1,-5 2,-8 4,-8 3,-1 7,1 12,5 6,4 13,10 19,16 5,5 8,10 11,16 2,6 4,14 6,22 1,7 1,15 2,20 2,5 4,7 5,7 2,-1 3,-3 3,-9 0,-6 0,-16 0,-23 -1,-8 0,-14 5,-13 6,2 18,10 29,19 12,9 23,20 33,30 9,10 18,20 23,26 6,6 9,9 10,8 1,0 1,-4 -2,-11 -2,-7 -8,-19 -14,-28 -6,-9 -12,-16 -14,-20 -2,-4 1,-5 4,-8 4,-2 8,-4 9,-6 2,-2 1,-4 -2,-4 -3,0 -9,1 -15,1 -6,0 -13,-1 -23,-6 -10,-5 -23,-14 -36,-23 -12,-9 -26,-18 -36,-25 -10,-7 -18,-12 -20,-15 -3,-3 0,-4 5,-4 4,-1 12,-2 19,-4 8,-2 15,-5 20,-8 5,-3 7,-5 6,-6 0,-2 -3,-2 -9,-2 -6,1 -15,3 -24,4 -10,2 -21,3 -29,3 -8,-1 -13,-2 -21,-6 -7,-4 -18,-10 -24,-15 -6,-4 -8,-6 -9,-8 0,-2 1,-4 6,-6 4,-2 11,-4 17,-6 6,-3 10,-5 13,-7 2,-3 2,-5 -2,-6 -4,-1 -12,0 -22,1 -10,1 -21,2 -30,-1 -10,-2 -17,-7 -24,-13 -6,-5 -13,-11 -18,-14 -5,-3 -9,-2 -11,-1 -1,2 -1,4 1,7 2,3 5,7 12,12l-1 0zm-588 942c20,0 37,-17 37,-37 0,-3 0,-6 -1,-9 -2,-8 1,-16 7,-20 2,-2 4,-3 6,-5 6,-3 13,-7 20,-11 6,-3 12,-7 14,-11 2,-3 1,-7 -1,-8 -3,-1 -6,0 -12,3 -7,3 -16,8 -24,13 -5,3 -9,6 -13,10 -6,4 -13,6 -20,3 -4,-2 -8,-3 -13,-3 -21,0 -37,17 -37,37 0,21 16,38 37,38l0 0zm106 -10c21,0 37,-16 37,-37 0,-21 -16,-37 -37,-37 -21,0 -37,16 -37,37 0,21 16,37 37,37zm179 174c13,7 28,18 40,35 11,17 21,40 27,60 6,20 9,37 13,44 3,7 8,5 16,2 8,-3 20,-8 38,-6 18,2 41,11 62,22 20,11 36,24 48,35 12,10 19,18 24,21 4,2 6,0 1,-12 -5,-12 -17,-35 -25,-55 -9,-21 -16,-41 -17,-56 -1,-16 3,-29 10,-32 8,-4 19,1 29,8 10,7 20,16 26,19 5,4 8,2 7,-4 -1,-5 -5,-14 -11,-28 -5,-14 -11,-33 -13,-51 -3,-17 -2,-34 2,-47 3,-13 10,-21 11,-27 2,-5 -2,-9 -12,-13 -10,-5 -26,-10 -41,-22 -15,-12 -29,-30 -38,-46 -9,-14 -13,-26 -16,-40 -3,-14 -4,-31 -7,-38 -2,-7 -6,-4 -12,0 -7,5 -17,11 -32,12 -15,1 -35,-5 -48,-16 -12,-12 -17,-29 -21,-38 -3,-8 -7,-6 -12,-1 -5,5 -12,14 -27,19 -15,5 -38,5 -56,1 -19,-4 -33,-13 -47,-30 -11,-14 -22,-33 -31,-52 3,-1 5,-3 7,-4 13,-11 27,-26 37,-40 11,-14 18,-27 24,-42 6,-16 10,-33 12,-48 2,-16 2,-31 0,-44 -2,-12 -6,-23 -8,-29 -2,-6 -1,-7 3,-6 3,1 9,6 16,12 7,7 15,17 20,28 5,12 7,25 7,37 1,12 0,22 0,27 1,5 4,5 10,4 6,-1 15,-3 26,-1 12,2 26,8 37,16 10,8 17,18 21,28 4,10 6,21 9,25 3,4 7,1 11,-4 4,-5 9,-13 19,-18 10,-5 25,-6 41,-2 16,3 33,12 43,18 10,7 15,11 17,11 3,-1 4,-5 0,-12 -4,-7 -13,-16 -19,-28 -5,-12 -8,-27 -8,-38 0,-10 3,-17 3,-22 0,-4 -2,-6 -8,-10 -7,-5 -17,-12 -24,-21 -7,-9 -12,-19 -14,-29 -2,-9 -1,-19 -2,-24 -2,-4 -4,-4 -11,-4 -7,0 -19,0 -31,-2 -12,-3 -24,-8 -33,-17 -9,-8 -14,-20 -18,-27 -4,-8 -7,-12 -9,-13 -2,-1 -4,1 -7,6 -3,5 -6,14 -15,21 -9,7 -24,14 -38,16 -14,2 -28,-1 -39,-6 -11,-5 -19,-11 -23,-16 -4,-6 -3,-10 4,-18 6,-9 17,-21 30,-33 14,-13 29,-25 45,-36 16,-10 32,-18 45,-23 12,-5 21,-7 28,-9 5,-1 11,0 15,4 5,3 8,8 8,14 2,19 18,34 37,34 21,0 38,-16 38,-37 0,-21 -17,-37 -38,-37 -3,0 -7,0 -11,1 -4,2 -8,2 -13,0 -7,-3 -15,-5 -27,-4 -15,1 -38,7 -60,16 -22,10 -42,22 -62,39 -20,17 -40,38 -56,58 -16,20 -29,39 -40,61 -11,23 -20,49 -26,76 -6,28 -8,56 -8,92 0,20 1,42 3,65 -14,6 -27,9 -37,10 -5,1 -9,1 -13,0 -8,0 -14,-4 -17,-11 -6,-13 -19,-22 -34,-22 -21,0 -37,17 -37,37 0,21 16,38 37,38 14,0 26,-8 32,-19 4,-6 10,-10 17,-10 5,1 11,0 16,0 10,-1 22,-4 35,-9l1 -1c1,13 2,25 3,37 4,37 7,68 9,94 2,26 3,48 4,71 1,33 3,66 -2,99 -5,34 -16,68 -30,95 -14,27 -30,47 -47,62 -18,15 -38,25 -54,32 -17,7 -30,9 -37,13 -6,3 -7,8 -3,14 3,7 10,16 14,33 5,18 7,44 1,73 -6,29 -20,60 -30,79 -11,19 -18,26 -19,31 0,4 6,6 15,12 8,6 19,15 26,32 7,17 11,42 10,63 0,22 -5,41 -5,51 0,10 5,11 13,12 8,0 18,1 29,9 11,9 21,27 30,48 9,22 15,48 20,66 6,18 11,27 16,31 4,4 9,3 11,-3 3,-6 3,-18 6,-38 3,-20 10,-47 19,-69 10,-23 23,-41 36,-51 14,-9 29,-10 39,-9 11,2 17,6 21,5 3,0 4,-5 2,-17 -3,-12 -10,-31 -12,-50 -2,-20 -1,-40 3,-55 3,-14 9,-23 16,-30 7,-6 16,-10 24,-12 9,-3 18,-4 18,-10 0,-7 -8,-17 -15,-30 -7,-13 -12,-29 -13,-46 0,-16 3,-34 10,-50 7,-16 18,-29 25,-37 7,-8 10,-11 7,-15 -3,-4 -12,-8 -26,-18 -14,-9 -32,-24 -47,-46 -14,-21 -25,-50 -32,-81 -6,-31 -9,-65 -13,-113 -4,-48 -8,-110 -13,-159 -5,-48 -9,-83 -12,-103 -2,-19 -2,-22 -1,-22 2,0 5,4 13,19 9,16 23,44 37,69 14,25 28,47 37,71 9,24 14,51 15,72 0,22 -4,38 -8,50 -4,11 -9,18 -10,21 -1,3 3,4 11,6 7,1 19,4 33,11l0 1zm104 13c-3,9 -7,15 -11,19 -3,4 -5,6 -7,6 -2,-1 -2,-3 -1,-11 2,-7 6,-20 9,-34 3,-13 6,-28 5,-39 -1,-12 -5,-20 -10,-31 -6,-11 -14,-25 -23,-36 -8,-11 -15,-18 -20,-21 -4,-3 -5,-1 -6,5 -1,6 -1,18 -4,29 -3,12 -8,24 -11,30 -4,6 -6,7 -6,5 -1,-2 0,-7 1,-16 1,-10 3,-24 2,-38 0,-13 -3,-27 -5,-37 -3,-9 -6,-15 -13,-23 -7,-8 -18,-18 -28,-27 -9,-8 -17,-14 -18,-18 -1,-3 5,-4 11,-5 5,0 9,0 16,4 6,3 16,11 27,23 12,11 26,27 37,38 11,10 18,15 30,19 12,3 29,4 44,4 14,-1 25,-4 33,-5 7,-1 10,-1 11,0 1,2 -1,6 -7,10 -6,4 -16,8 -27,11 -12,2 -24,3 -32,4 -8,1 -12,2 -11,6 0,3 4,10 10,20 6,11 13,26 19,35 6,10 10,14 18,19 9,5 21,10 34,14 13,4 27,6 34,8 7,2 9,4 4,6 -5,2 -16,4 -28,3 -13,-1 -25,-5 -33,-6 -8,-2 -11,-2 -11,4 1,5 7,16 13,30 7,15 14,32 23,48 8,17 17,31 23,40 5,9 7,13 6,14 -1,1 -5,-1 -12,-8 -7,-7 -18,-20 -27,-34 -9,-14 -17,-29 -25,-44 -7,-14 -14,-28 -18,-36 -4,-9 -6,-11 -8,-7 -2,4 -5,14 -8,22l0 0zm-73 -533c-7,-5 -18,-11 -25,-16 -7,-4 -10,-6 -12,-9 -1,-3 -1,-5 3,-6 3,0 10,2 19,6 9,3 19,9 29,13 10,4 19,6 27,7 8,0 15,0 22,-1 7,-1 13,-2 17,-3 4,0 6,1 6,2 -1,2 -3,5 -7,7 -4,2 -9,4 -12,5 -4,2 -6,4 -4,6 1,2 6,5 12,9 6,5 14,11 24,21 10,9 24,22 33,32 10,10 17,16 17,19 1,3 -4,3 -12,-2 -7,-4 -17,-12 -26,-22 -9,-9 -18,-18 -24,-24 -7,-5 -11,-5 -11,-2 0,2 3,8 6,16 2,7 4,16 4,23 0,6 -1,10 -2,13 -2,2 -3,3 -5,-1 -1,-4 -2,-13 -4,-22 -2,-9 -5,-18 -9,-25 -3,-7 -7,-12 -13,-17 -6,-5 -13,-9 -19,-12 -5,-3 -7,-3 -8,-3 -1,1 -1,3 -1,8 0,5 -1,15 -3,21 -2,6 -4,9 -7,10 -2,1 -4,1 -4,-2 1,-3 4,-8 4,-16 1,-7 0,-16 -2,-22 -3,-6 -6,-9 -12,-13l-1 0zm-80 -7c5,17 6,37 3,58 -3,21 -11,43 -20,61 -10,19 -22,35 -35,48 -5,5 -10,9 -16,13 -8,-21 -11,-39 -11,-63 1,-25 5,-56 13,-84 8,-28 20,-53 28,-65 8,-12 12,-11 18,-4 7,7 15,20 20,36l0 0zm-66 637c0,7 -3,15 -9,27 -5,12 -12,28 -16,40 -4,12 -5,21 0,33 4,12 14,28 23,41 9,13 18,23 22,30 4,6 4,9 1,9 -3,0 -10,-3 -18,-8 -7,-6 -16,-15 -23,-24 -7,-9 -13,-18 -17,-22 -4,-4 -6,-2 -10,8 -3,10 -9,28 -12,49 -4,21 -6,45 -6,70 0,24 2,48 4,72 2,25 4,49 6,70 2,22 4,41 3,62 -1,21 -4,43 -7,56 -4,13 -6,16 -7,6 0,-11 1,-35 1,-57 0,-21 -1,-41 -4,-58 -2,-18 -5,-35 -8,-55 -3,-20 -7,-43 -8,-66 -1,-23 0,-46 3,-71 4,-25 9,-52 12,-68 3,-15 4,-19 0,-20 -4,0 -11,3 -20,7 -9,3 -19,7 -26,9 -7,2 -11,2 -12,0 -2,-1 0,-3 8,-8 8,-6 22,-15 34,-23 12,-9 22,-16 29,-26 7,-10 11,-22 17,-36 5,-14 12,-29 17,-39 5,-11 7,-17 10,-21 2,-3 4,-4 6,-2 3,3 7,8 7,15l0 0zm-34 261c6,8 14,20 21,34 7,13 14,28 18,41 4,12 5,21 5,26 0,5 -2,5 -6,-1 -3,-6 -8,-17 -14,-27 -5,-10 -10,-18 -15,-26 -6,-8 -13,-15 -18,-22 -5,-7 -10,-12 -12,-16 -2,-5 -3,-9 -2,-12 1,-4 4,-7 8,-7 3,0 8,3 14,11l1 -1zm-76 14c-5,7 -12,16 -18,23 -7,6 -12,9 -16,11 -4,1 -6,0 -7,-2 -1,-2 0,-6 4,-11 4,-6 12,-14 19,-23 7,-9 14,-20 18,-26 5,-6 7,-8 9,-5 1,2 1,9 0,15 -1,6 -4,11 -9,18zm2237 -3286c0,20 -16,37 -37,37 -3,0 -6,0 -9,-1 -7,-2 -15,1 -20,7 -1,2 -3,4 -4,6 -3,6 -7,13 -11,20 -4,6 -8,12 -11,14 -4,2 -7,1 -9,-1 -1,-3 0,-6 3,-12 3,-7 8,-16 14,-24 3,-5 6,-9 9,-13 5,-6 6,-13 3,-19 -1,-5 -2,-9 -2,-14 0,-21 16,-37 37,-37 21,0 37,16 37,37l0 0zm-46 69c20,0 37,16 37,37 0,21 -17,37 -37,37 -21,0 -37,-16 -37,-37 0,-21 16,-37 37,-37zm595 -9c8,-5 17,-12 23,-18 6,-7 10,-13 11,-16 1,-4 1,-6 -2,-7 -2,-1 -5,0 -11,4 -6,4 -14,12 -23,19 -9,7 -19,13 -25,18 -7,5 -8,7 -6,8 2,2 9,2 15,1 6,-1 11,-4 18,-9zm8 25c-23,-2 -46,-1 -71,3 -25,3 -52,9 -67,12 -16,3 -20,3 -20,0 -1,-4 2,-12 6,-21 4,-8 7,-18 9,-25 2,-7 2,-11 1,-13 -1,-1 -3,0 -9,8 -6,8 -15,23 -23,35 -8,12 -16,22 -25,29 -10,7 -23,11 -36,17 -14,5 -29,12 -40,16 -11,5 -17,8 -20,10 -4,2 -5,4 -2,7 2,2 8,6 15,6 6,0 14,-3 26,-8 12,-5 28,-13 41,-17 12,-4 20,-5 32,0 12,5 29,15 42,24 13,9 23,17 29,21 6,4 9,4 9,1 0,-3 -2,-10 -8,-17 -6,-8 -14,-16 -23,-24 -9,-7 -19,-13 -23,-17 -3,-4 -2,-6 8,-9 10,-4 28,-9 50,-13 21,-3 45,-6 69,-6 24,0 49,3 73,5 24,2 48,4 70,6 22,2 41,4 61,3 21,-1 43,-5 56,-8 13,-3 16,-5 6,-6 -10,-1 -35,0 -56,0 -22,0 -41,-1 -59,-3 -18,-2 -35,-5 -54,-8 -20,-4 -43,-7 -67,-9l0 1zm-800 134c19,-10 34,-22 47,-35 5,-5 9,-11 13,-16 -21,-8 -39,-12 -63,-11 -24,0 -56,5 -84,13 -28,8 -53,20 -65,28 -12,8 -11,12 -4,18 7,7 20,15 37,20 16,5 36,6 57,3 21,-3 43,-11 62,-21l0 1zm228 69c-8,-7 -18,-18 -26,-27 -8,-9 -15,-17 -18,-18 -4,-1 -5,5 -5,10 -1,6 -1,10 3,17 4,6 11,15 23,27 12,12 28,26 38,37 11,11 16,18 19,30 3,12 5,29 4,43 0,15 -3,26 -5,34 -1,7 -1,10 1,11 2,1 5,-1 9,-7 4,-6 9,-16 11,-28 3,-11 4,-24 5,-32 1,-8 2,-11 5,-11 4,1 10,5 21,11 10,6 25,13 35,19 9,6 14,10 19,18 4,9 10,21 13,34 4,13 6,26 8,34 3,7 5,9 7,4 2,-5 3,-17 2,-29 -1,-12 -4,-24 -6,-32 -2,-8 -1,-12 4,-11 6,1 17,7 31,13 14,7 32,14 48,23 16,8 30,17 39,23 9,5 13,7 14,6 2,-1 0,-5 -8,-12 -7,-7 -19,-18 -33,-27 -15,-9 -30,-17 -44,-25 -15,-7 -29,-14 -37,-18 -8,-5 -11,-6 -7,-8 4,-2 14,-5 23,-8 8,-4 15,-8 19,-11 4,-4 5,-6 5,-8 0,-1 -3,-2 -10,0 -8,1 -21,5 -34,9 -14,3 -28,5 -40,4 -11,0 -20,-4 -31,-10 -11,-6 -25,-14 -36,-22 -10,-8 -18,-16 -21,-20 -3,-4 -1,-5 5,-6 7,-1 18,-1 30,-4 11,-3 23,-8 29,-12 6,-3 7,-5 5,-6 -2,0 -6,0 -16,2 -9,1 -23,2 -37,1 -14,0 -28,-2 -37,-5 -10,-3 -16,-6 -24,-13l0 0zm-341 28c-4,-7 -11,-18 -15,-25 -5,-7 -7,-10 -9,-12 -3,-1 -6,-1 -6,3 0,3 1,10 5,19 4,8 10,19 14,29 4,10 6,19 6,27 1,8 0,15 -1,22 -1,6 -2,13 -2,17 0,4 0,6 2,5 2,0 4,-2 7,-6 2,-4 3,-9 5,-13 2,-3 3,-5 6,-3 2,1 4,6 9,12 4,6 11,14 20,24 10,10 23,24 33,33 9,10 15,17 18,17 3,1 3,-4 -1,-12 -4,-7 -13,-17 -22,-26 -9,-9 -19,-18 -24,-24 -5,-7 -5,-11 -3,-11 3,-1 9,3 16,5 8,3 17,4 23,5 7,0 11,-1 13,-2 3,-2 3,-4 -1,-5 -4,-1 -12,-2 -21,-4 -9,-2 -18,-5 -25,-9 -7,-4 -12,-8 -17,-13 -5,-6 -10,-14 -12,-19 -3,-5 -4,-7 -3,-8 0,-1 2,-1 8,-1 5,0 14,-1 20,-3 6,-2 9,-4 11,-7 1,-2 0,-4 -2,-4 -3,1 -9,4 -16,4 -7,1 -16,0 -22,-2 -6,-3 -9,-6 -14,-12l0 -1zm939 -171c-8,-6 -16,-13 -23,-18 -6,-5 -11,-10 -16,-12 -4,-2 -8,-3 -12,-2 -3,1 -7,4 -7,8 0,3 3,8 11,14 7,7 19,14 33,22 14,7 29,14 41,18 13,4 22,5 27,5 5,-1 5,-3 -1,-6 -6,-4 -17,-9 -27,-14 -10,-5 -18,-10 -26,-15l0 0z"
       class="fil0"
       id="tl" /></g><use
     height="100%"
     width="100%"
     transform="matrix(-1,0,0,1,20743.15,0)"
     id="use3341"
     xlink:href="#Layer_x0020_1"
     y="0"
     x="0" /><use
     height="100%"
     width="100%"
     transform="matrix(1,0,0,-1,0,11430)"
     id="use3343"
     xlink:href="#Layer_x0020_1"
     y="0"
     x="0" /><use
     height="100%"
     width="100%"
     transform="matrix(-1,0,0,-1,20743.15,11430)"
     id="use3345"
     xlink:href="#Layer_x0020_1"
     y="0"
     x="0" /></svg>